<!DOCTYPE svg PUBLIC "-//W3C//DTD SVG 1.1//EN" "http://www.w3.org/Graphics/SVG/1.1/DTD/svg11.dtd">
<!-- Uploaded to: SVG Repo, www.svgrepo.com, Transformed by: SVG Repo Mixer Tools -->
<svg width="800px" height="800px" viewBox="0 0 16 16" xmlns:dc="http://purl.org/dc/elements/1.1/" xmlns:cc="http://creativecommons.org/ns#" xmlns:rdf="http://www.w3.org/1999/02/22-rdf-syntax-ns#" xmlns="http://www.w3.org/2000/svg" version="1.1" id="svg2" fill="#000000">
<g id="SVGRepo_bgCarrier" stroke-width="0"/>
<g id="SVGRepo_tracerCarrier" stroke-linecap="round" stroke-linejoin="round"/>
<g id="SVGRepo_iconCarrier"> <metadata id="metadata7"> <rdf:rdf> <cc:work> <dc:format>image/svg+xml</dc:format> <dc:type rdf:resource="http://purl.org/dc/dcmitype/StillImage"/> <dc:title/> <dc:date>2021</dc:date> <dc:creator> <cc:agent> <dc:title>Timothée Giet</dc:title> </cc:agent> </dc:creator> <cc:license rdf:resource="http://creativecommons.org/licenses/by-sa/4.0/"/> </cc:work> <cc:license rdf:about="http://creativecommons.org/licenses/by-sa/4.0/"> <cc:permits rdf:resource="http://creativecommons.org/ns#Reproduction"/> <cc:permits rdf:resource="http://creativecommons.org/ns#Distribution"/> <cc:requires rdf:resource="http://creativecommons.org/ns#Notice"/> <cc:requires rdf:resource="http://creativecommons.org/ns#Attribution"/> <cc:permits rdf:resource="http://creativecommons.org/ns#DerivativeWorks"/> <cc:requires rdf:resource="http://creativecommons.org/ns#ShareAlike"/> </cc:license> </rdf:rdf> </metadata> <g transform="translate(0 -1036.362)" id="layer1"> <path id="path828" transform="translate(0 1036.362)" d="M8 1a7 7 0 0 0-7 7 7 7 0 0 0 7 7 7 7 0 0 0 7-7 7 7 0 0 0-7-7zm0 1a6 6 0 0 1 6 6 6 6 0 0 1-6 6 6 6 0 0 1-6-6 6 6 0 0 1 6-6z" style="opacity:1;vector-effect:none;fill:#000000;fill-opacity:1;stroke:none;stroke-width:4;stroke-linecap:square;stroke-linejoin:round;stroke-miterlimit:4;stroke-dasharray:none;stroke-dashoffset:3.20000005;stroke-opacity:.55063291"/> <path id="rect891" d="m6 1041.362 5 3-5 3z" style="opacity:1;vector-effect:none;fill:#000000;fill-opacity:1;stroke:none;stroke-width:4;stroke-linecap:square;stroke-linejoin:round;stroke-miterlimit:4;stroke-dasharray:none;stroke-dashoffset:3.20000005;stroke-opacity:.55063291"/> </g> </g>
</svg>